<?xml version="1.0" standalone="no"?><!DOCTYPE svg PUBLIC "-//W3C//DTD SVG 1.1//EN" "http://www.w3.org/Graphics/SVG/1.1/DTD/svg11.dtd"><svg t="1548338623367" class="icon" style="" viewBox="0 0 1024 1024" version="1.1" xmlns="http://www.w3.org/2000/svg" p-id="11841" xmlns:xlink="http://www.w3.org/1999/xlink" width="200" height="200"><defs><style type="text/css"></style></defs><path d="M392.533333 204.8h102.4a34.133333 34.133333 0 0 1 34.133334 34.133333v580.266667a34.133333 34.133333 0 0 1-34.133334 34.133333h-102.4a34.133333 34.133333 0 0 1-34.133333-34.133333V238.933333a34.133333 34.133333 0 0 1 34.133333-34.133333z m17.066667 51.2v170.666667h68.266667V256h-68.266667z m0 324.266667v187.733333h17.066667V580.266667h-17.066667z m51.2 0v238.933333h17.066667V580.266667h-17.066667zM187.733333 204.8h119.466667a34.133333 34.133333 0 0 1 34.133333 34.133333v580.266667a34.133333 34.133333 0 0 1-34.133333 34.133333h-119.466667a34.133333 34.133333 0 0 1-34.133333-34.133333V238.933333a34.133333 34.133333 0 0 1 34.133333-34.133333z m17.066667 34.133333a17.066667 17.066667 0 0 0-17.066667 17.066667v546.133333a17.066667 17.066667 0 0 0 17.066667 17.066667h85.333333a17.066667 17.066667 0 0 0 17.066667-17.066667V256a17.066667 17.066667 0 0 0-17.066667-17.066667h-85.333333z" p-id="11842"></path><path d="M221.866667 290.133333h51.2v136.533334h-51.2zM221.866667 580.266667h17.066666v136.533333h-17.066666zM256 580.266667h17.066667v204.8h-17.066667z" p-id="11843"></path><path d="M549.5808 214.237867l115.387733-30.907734a34.133333 34.133333 0 0 1 41.813334 24.132267l150.186666 560.4864a34.133333 34.133333 0 0 1-24.149333 41.813333l-115.387733 30.907734a34.133333 34.133333 0 0 1-41.813334-24.132267l-150.186666-560.4864a34.133333 34.133333 0 0 1 24.149333-41.813333z m25.309867 28.552533a17.066667 17.066667 0 0 0-12.066134 20.906667l141.346134 527.530666a17.066667 17.066667 0 0 0 20.906666 12.066134l82.432-22.084267a17.066667 17.066667 0 0 0 12.066134-20.906667l-141.346134-527.530666a17.066667 17.066667 0 0 0-20.906666-12.066134l-82.432 22.084267z" p-id="11844"></path><path d="M604.637867 287.829333l49.442133-13.243733 35.345067 131.874133-49.4592 13.2608zM679.7312 568.081067l16.469333-4.420267 35.345067 131.8912-16.4864 4.4032zM712.704 559.240533l16.469333-4.4032 53.009067 197.802667-16.4864 4.437333z" p-id="11845"></path></svg>